<svg width="762" height="1233" viewBox="0 0 762 1233" fill="none" xmlns="http://www.w3.org/2000/svg">
<path d="M62.0938 1190.43C67.3858 1190.43 70.4098 1187.52 72.1378 1184.53L67.7458 1182.4C66.7378 1184.38 64.5778 1185.9 62.0938 1185.9C57.7378 1185.9 54.5698 1182.55 54.5698 1178.01C54.5698 1173.48 57.7378 1170.13 62.0938 1170.13C64.5778 1170.13 66.7378 1171.68 67.7458 1173.62L72.1378 1171.46C70.4458 1168.47 67.3858 1165.59 62.0938 1165.59C54.8938 1165.59 49.3138 1170.63 49.3138 1178.01C49.3138 1185.39 54.8938 1190.43 62.0938 1190.43ZM83.1367 1190.43C88.8967 1190.43 92.3527 1186.26 92.3527 1181.29C92.3527 1176.36 88.8967 1172.18 83.1367 1172.18C77.4127 1172.18 73.9567 1176.36 73.9567 1181.29C73.9567 1186.26 77.4127 1190.43 83.1367 1190.43ZM83.1367 1186.36C80.2927 1186.36 78.7087 1184.02 78.7087 1181.29C78.7087 1178.59 80.2927 1176.25 83.1367 1176.25C85.9807 1176.25 87.6007 1178.59 87.6007 1181.29C87.6007 1184.02 85.9807 1186.36 83.1367 1186.36ZM112.053 1190V1177.72C112.053 1174.34 110.217 1172.18 106.401 1172.18C103.557 1172.18 101.433 1173.55 100.317 1174.88V1172.61H95.7446V1190H100.317V1178.3C101.073 1177.26 102.477 1176.25 104.277 1176.25C106.221 1176.25 107.481 1177.08 107.481 1179.49V1190H112.053ZM122.208 1190V1176.61H125.736V1172.61H122.208V1171.68C122.208 1170.09 123.072 1169.23 124.368 1169.23C124.98 1169.23 125.484 1169.41 125.844 1169.66L126.78 1166.35C125.952 1165.92 124.764 1165.63 123.468 1165.63C120.048 1165.63 117.6 1167.9 117.6 1171.68V1172.61H114.72V1176.61H117.6V1190H122.208ZM130.632 1170.74C132.144 1170.74 133.368 1169.52 133.368 1168C133.368 1166.49 132.144 1165.3 130.632 1165.3C129.156 1165.3 127.896 1166.49 127.896 1168C127.896 1169.52 129.156 1170.74 130.632 1170.74ZM132.936 1190V1172.61H128.364V1190H132.936ZM154.035 1190V1165.99H149.427V1174.84C148.059 1173.08 146.115 1172.18 144.063 1172.18C139.635 1172.18 136.359 1175.64 136.359 1181.32C136.359 1187.12 139.671 1190.43 144.063 1190.43C146.151 1190.43 148.059 1189.5 149.427 1187.77V1190H154.035ZM145.467 1186.36C142.875 1186.36 141.075 1184.31 141.075 1181.32C141.075 1178.3 142.875 1176.25 145.467 1176.25C147.015 1176.25 148.671 1177.08 149.427 1178.23V1184.38C148.671 1185.54 147.015 1186.36 145.467 1186.36ZM166.741 1190.43C169.441 1190.43 172.177 1189.6 173.905 1188.02L171.889 1185.07C170.773 1186.15 168.721 1186.8 167.245 1186.8C164.293 1186.8 162.529 1184.96 162.241 1182.76H175.165V1181.76C175.165 1176.07 171.637 1172.18 166.453 1172.18C161.161 1172.18 157.453 1176.25 157.453 1181.29C157.453 1186.87 161.449 1190.43 166.741 1190.43ZM170.737 1179.67H162.169C162.385 1177.94 163.609 1175.82 166.453 1175.82C169.477 1175.82 170.629 1178.01 170.737 1179.67ZM194.775 1190V1177.72C194.775 1174.34 192.939 1172.18 189.123 1172.18C186.279 1172.18 184.155 1173.55 183.039 1174.88V1172.61H178.467V1190H183.039V1178.3C183.795 1177.26 185.199 1176.25 186.999 1176.25C188.943 1176.25 190.203 1177.08 190.203 1179.49V1190H194.775ZM207.415 1190.43C210.979 1190.43 213.139 1188.88 214.291 1187.26L211.303 1184.49C210.475 1185.64 209.215 1186.36 207.631 1186.36C204.859 1186.36 202.915 1184.31 202.915 1181.29C202.915 1178.26 204.859 1176.25 207.631 1176.25C209.215 1176.25 210.475 1176.9 211.303 1178.12L214.291 1175.31C213.139 1173.73 210.979 1172.18 207.415 1172.18C202.051 1172.18 198.199 1175.96 198.199 1181.29C198.199 1186.65 202.051 1190.43 207.415 1190.43ZM225.452 1190.43C228.152 1190.43 230.888 1189.6 232.616 1188.02L230.6 1185.07C229.484 1186.15 227.432 1186.8 225.956 1186.8C223.004 1186.8 221.24 1184.96 220.952 1182.76H233.876V1181.76C233.876 1176.07 230.348 1172.18 225.164 1172.18C219.872 1172.18 216.164 1176.25 216.164 1181.29C216.164 1186.87 220.16 1190.43 225.452 1190.43ZM229.448 1179.67H220.88C221.096 1177.94 222.32 1175.82 225.164 1175.82C228.188 1175.82 229.34 1178.01 229.448 1179.67Z" fill="black"/>
<path d="M426.998 171.28C427.049 169.058 426.197 166.943 424.599 165.325C423.745 164.46 422.721 163.788 421.606 163.34C422.262 162.139 422.649 160.758 422.683 159.283C422.734 157.105 421.896 155.033 420.323 153.451C419.302 152.423 418.037 151.676 416.665 151.271V83.5C416.665 79.3645 413.301 76 409.165 76C405.906 76 403.128 78.0902 402.096 81H349.5C348.556 81 347.693 81.5317 347.268 82.375C346.843 83.218 346.929 84.2285 347.491 84.9872L361.193 103.5L347.491 122.013C346.929 122.771 346.843 123.782 347.268 124.625C347.693 125.468 348.556 126 349.5 126H401.665V142.21C401.407 142.051 401.143 141.891 400.865 141.731C400.829 141.71 400.793 141.69 400.756 141.672C400.563 141.573 400.355 141.46 400.131 141.341C397.868 140.126 393.656 137.863 388.834 139.682C382.552 142.051 379.551 145.007 377.139 147.383C374.745 149.741 373.048 151.408 368.569 151.839C368.339 150.697 367.33 149.836 366.119 149.836H349.5C348.119 149.836 347 150.956 347 152.336V199.357C347 200.738 348.119 201.857 349.5 201.857H366.119C367.314 201.857 368.312 201.018 368.559 199.898C371.124 200.205 373.75 200.931 376.491 201.69C380.271 202.736 384.178 203.818 388.198 203.818H404.907L409.089 203.993C409.202 203.998 409.315 204 409.428 204C411.55 204 413.624 203.169 415.164 201.692C416.733 200.188 417.597 198.19 417.597 196.066C417.597 194.759 417.311 193.521 416.797 192.417C417.997 192.022 419.109 191.362 420.034 190.475C421.644 188.931 422.531 186.881 422.531 184.703C422.531 182.785 421.929 181.013 420.907 179.58C424.378 178.487 426.907 175.212 426.998 171.28V171.28ZM417.684 159.167C417.639 161.139 416.169 162.71 414.339 162.744C414.337 162.744 414.334 162.745 414.332 162.745C414.329 162.745 414.327 162.744 414.324 162.744L406.597 162.934C406.424 161.315 406.35 159.179 406.86 156.047L414.206 155.926C415.162 155.907 416.098 156.292 416.776 156.974C417.38 157.583 417.703 158.361 417.684 159.167V159.167ZM409.165 81C410.544 81 411.665 82.1215 411.665 83.5V150.967L407.637 151.033C407.668 150.035 407.558 149.016 407.172 147.972C407.034 147.598 406.864 147.236 406.666 146.88V83.5C406.665 82.1215 407.787 81 409.165 81V81ZM354.461 121L366.313 104.987C366.967 104.104 366.967 102.896 366.313 102.013L354.461 86H401.665V121H354.461ZM377.826 196.871C374.835 196.043 371.763 195.194 368.62 194.875V187.096C368.62 185.715 367.5 184.596 366.12 184.596C364.739 184.596 363.62 185.715 363.62 187.096V196.857H352V154.836H363.62V164.596C363.62 165.976 364.739 167.096 366.12 167.096C367.5 167.096 368.62 165.976 368.62 164.596V156.851C375.187 156.32 377.849 153.702 380.648 150.945C382.939 148.689 385.307 146.356 390.599 144.36C393.295 143.344 395.879 144.732 397.766 145.746C397.997 145.87 398.214 145.986 398.416 146.09C400.754 147.447 402.084 148.628 402.481 149.703C402.798 150.562 402.616 151.601 402.269 153.363C402.183 153.794 402.095 154.242 402.013 154.708C401.107 159.855 401.533 162.929 401.814 164.964C401.874 165.394 401.927 165.775 401.954 166.094C401.788 166.218 401.389 166.405 400.784 166.457C399.682 166.553 398.531 166.162 397.706 165.415C395.597 163.504 395.472 162.157 395.266 159.924C395.184 159.043 395.092 158.045 394.858 156.959C394.567 155.61 393.238 154.75 391.888 155.042C390.538 155.332 389.68 156.662 389.97 158.012C390.141 158.804 390.212 159.572 390.287 160.384C390.411 161.727 390.545 163.164 391.141 164.685C389.215 170.072 382.856 173.347 378.873 173.347C377.492 173.347 376.373 174.466 376.373 175.847C376.373 177.227 377.492 178.347 378.873 178.347C381.635 178.347 385.181 177.307 388.387 175.293C388.794 176.185 389.365 177.013 390.088 177.739C390.11 177.761 390.133 177.781 390.155 177.803C388.621 179.333 387.776 181.333 387.776 183.456C387.776 186.851 389.657 189.787 392.425 191.198C391.702 192.394 391.317 193.756 391.317 195.174C391.317 196.48 391.604 197.715 392.116 198.818H388.198C384.858 198.818 381.442 197.872 377.826 196.871V196.871ZM411.704 198.083C411.06 198.701 410.182 199.036 409.299 198.997L399.35 198.58C397.649 198.509 396.317 197.013 396.317 195.174C396.317 194.427 396.634 193.711 397.21 193.158C397.822 192.571 398.644 192.24 399.483 192.24C399.526 192.24 399.569 192.241 399.611 192.243H399.612L409.564 192.66H409.565C411.266 192.731 412.598 194.228 412.598 196.066C412.598 196.814 412.28 197.531 411.704 198.083V198.083ZM416.574 186.867C415.886 187.526 414.95 187.882 414.007 187.842L409.787 187.665C409.783 187.665 409.779 187.665 409.774 187.664C409.774 187.664 409.774 187.664 409.774 187.664L399.821 187.247L396.017 187.088C394.2 187.011 392.776 185.416 392.776 183.456C392.776 182.653 393.116 181.885 393.734 181.293C394.397 180.657 395.291 180.306 396.201 180.319C396.232 180.319 396.262 180.321 396.292 180.321C396.315 180.321 396.339 180.321 396.362 180.32L414.291 181.072C416.108 181.148 417.532 182.743 417.532 184.703C417.531 185.506 417.191 186.275 416.574 186.867V186.867ZM418.433 174.971C415.303 175.029 411.273 175.089 407.376 175.146C403.504 175.203 399.5 175.262 396.38 175.32C396.36 175.32 396.341 175.32 396.321 175.319C395.322 175.324 394.343 174.926 393.632 174.212C392.983 173.56 392.636 172.724 392.656 171.859C392.657 171.839 392.657 171.82 392.657 171.801V171.704C393.332 170.945 393.946 170.122 394.483 169.237C396.315 170.834 398.47 171.469 400.425 171.469C401.728 171.469 402.941 171.188 403.908 170.724C405.236 170.086 406.18 169.101 406.642 167.934L414.438 167.743L418.277 167.702H418.317C419.336 167.702 420.327 168.115 421.041 168.838C421.679 169.484 422.019 170.31 421.999 171.164C421.95 173.262 420.384 174.934 418.433 174.971V174.971Z" fill="#074EE8"/>
<path d="M366.12 173.346C364.739 173.346 363.62 174.466 363.62 175.847C363.62 177.228 364.739 178.347 366.12 178.347C367.5 178.347 368.62 177.227 368.62 175.847V175.845C368.62 174.464 367.5 173.346 366.12 173.346V173.346Z" fill="#074EE8"/>
<path d="M288.022 253H305.014V248.572H293.134V242.992H304.762V238.6H293.134V233.38H305.014V228.988H288.022V253ZM319.667 253H324.779L318.551 244.072L324.383 235.612H319.271L315.707 240.976L312.107 235.612H306.995L312.791 244.072L306.635 253H311.711L315.707 247.132L319.667 253ZM331.615 259.624V250.768C333.019 252.568 334.927 253.432 336.979 253.432C341.443 253.432 344.683 250.084 344.683 244.288C344.683 238.492 341.443 235.18 336.979 235.18C334.855 235.18 332.947 236.116 331.615 237.808V235.612H327.043V259.624H331.615ZM339.931 244.288C339.931 247.312 338.167 249.364 335.539 249.364C334.063 249.364 332.371 248.464 331.615 247.384V241.228C332.371 240.112 334.063 239.248 335.539 239.248C338.167 239.248 339.931 241.3 339.931 244.288ZM346.986 244.288C346.986 249.868 350.982 253.432 356.274 253.432C358.974 253.432 361.674 252.64 363.438 251.02L361.422 248.068C360.306 249.148 358.398 249.796 356.778 249.796C353.826 249.796 352.062 247.96 351.774 245.764H364.698V244.756C364.698 239.068 361.17 235.18 355.986 235.18C350.694 235.18 346.986 239.248 346.986 244.288ZM355.986 238.816C359.01 238.816 360.162 241.012 360.27 242.668H351.702C351.918 240.94 353.142 238.816 355.986 238.816ZM366.884 244.288C366.884 249.652 370.736 253.432 376.1 253.432C379.664 253.432 381.824 251.884 382.976 250.264L379.988 247.492C379.16 248.644 377.9 249.364 376.316 249.364C373.544 249.364 371.6 247.312 371.6 244.288C371.6 241.264 373.544 239.248 376.316 239.248C377.9 239.248 379.16 239.932 379.988 241.12L382.976 238.348C381.824 236.728 379.664 235.18 376.1 235.18C370.736 235.18 366.884 238.96 366.884 244.288ZM391.797 253.432C393.705 253.432 394.929 252.928 395.613 252.316L394.641 248.86C394.389 249.112 393.741 249.364 393.057 249.364C392.049 249.364 391.473 248.536 391.473 247.456V239.608H395.001V235.612H391.473V230.86H386.865V235.612H383.985V239.608H386.865V248.68C386.865 251.776 388.593 253.432 391.797 253.432ZM408.569 253H413.141V241.768C413.141 236.764 409.505 235.18 405.545 235.18C402.809 235.18 400.073 236.044 397.949 237.916L399.677 240.976C401.153 239.608 402.881 238.924 404.753 238.924C407.057 238.924 408.569 240.076 408.569 241.84V244.252C407.417 242.848 405.365 242.128 403.061 242.128C400.289 242.128 397.013 243.604 397.013 247.672C397.013 251.56 400.289 253.432 403.061 253.432C405.329 253.432 407.381 252.604 408.569 251.2V253ZM408.569 248.824C407.813 249.832 406.373 250.336 404.897 250.336C403.097 250.336 401.621 249.4 401.621 247.78C401.621 246.124 403.097 245.152 404.897 245.152C406.373 245.152 407.813 245.656 408.569 246.664V248.824ZM423.508 253.432C425.416 253.432 426.64 252.928 427.324 252.316L426.352 248.86C426.1 249.112 425.452 249.364 424.768 249.364C423.76 249.364 423.184 248.536 423.184 247.456V239.608H426.712V235.612H423.184V230.86H418.576V235.612H415.696V239.608H418.576V248.68C418.576 251.776 420.304 253.432 423.508 253.432ZM432.108 233.056C433.62 233.056 434.844 231.832 434.844 230.32C434.844 228.808 433.62 227.584 432.108 227.584C430.632 227.584 429.372 228.808 429.372 230.32C429.372 231.832 430.632 233.056 432.108 233.056ZM429.84 253H434.412V235.612H429.84V253ZM447.01 253.432C452.77 253.432 456.226 249.256 456.226 244.288C456.226 239.356 452.77 235.18 447.01 235.18C441.286 235.18 437.83 239.356 437.83 244.288C437.83 249.256 441.286 253.432 447.01 253.432ZM447.01 249.364C444.166 249.364 442.582 247.024 442.582 244.288C442.582 241.588 444.166 239.248 447.01 239.248C449.854 239.248 451.474 241.588 451.474 244.288C451.474 247.024 449.854 249.364 447.01 249.364ZM471.354 253H475.926V240.724C475.926 237.34 474.09 235.18 470.274 235.18C467.43 235.18 465.306 236.548 464.19 237.88V235.612H459.618V253H464.19V241.3C464.946 240.256 466.35 239.248 468.15 239.248C470.094 239.248 471.354 240.076 471.354 242.488V253ZM478.953 250.732C480.789 252.424 483.705 253.432 486.729 253.432C491.553 253.432 494.253 251.056 494.253 247.852C494.253 243.532 490.257 242.74 487.269 242.164C485.325 241.768 483.957 241.372 483.957 240.292C483.957 239.284 485.037 238.672 486.693 238.672C488.817 238.672 490.797 239.572 491.841 240.688L493.641 237.556C491.949 236.188 489.609 235.18 486.657 235.18C482.085 235.18 479.529 237.736 479.529 240.652C479.529 244.792 483.381 245.512 486.369 246.088C488.349 246.484 489.861 246.916 489.861 248.14C489.861 249.22 488.925 249.904 486.945 249.904C484.785 249.904 482.193 248.716 480.933 247.528L478.953 250.732Z" fill="black"/>
<path d="M705 889.5C705 1064.41 568.564 1206 400.5 1206C232.437 1206 96 1064.41 96 889.5C96 714.593 232.437 573 400.5 573C568.564 573 705 714.593 705 889.5Z" stroke="#074EE8" stroke-width="6"/>
<rect x="319" y="531" width="151" height="151" fill="white"/>
<rect x="571" y="973" width="152" height="159" fill="white"/>
<path d="M390.538 510.799C391.719 511.961 393.619 511.946 394.781 510.765L413.719 491.52C414.881 490.339 414.866 488.44 413.685 487.278C412.504 486.115 410.604 486.131 409.442 487.312L392.609 504.418L375.502 487.584C374.321 486.422 372.422 486.437 371.26 487.618C370.098 488.799 370.113 490.699 371.294 491.861L390.538 510.799ZM388 304.024L389.643 508.684L395.643 508.636L394 303.976L388 304.024Z" fill="#074EE8"/>
<path d="M455.16 589.418C454.299 588.529 453.233 587.914 452.065 587.619C452.758 586.521 453.106 585.241 453.058 583.909C452.934 580.43 449.939 577.6 446.382 577.6H433.388L433.375 558.182C433.375 553.972 429.941 550.545 425.719 550.545C421.497 550.545 418.062 553.972 418.062 558.182V563.321C418.062 564.639 417.783 565.912 417.269 567.074C407.634 566.713 399.906 558.787 399.906 549.091V546.727C399.906 545.223 398.68 544 397.172 544H368.953C367.445 544 366.219 545.223 366.219 546.727V548.582C366.219 558.507 358.123 566.582 348.172 566.582H347.734C346.226 566.582 345 567.805 345 569.309V602.036C345 622.97 362.074 640 383.062 640C397.95 640 411.401 631.385 417.622 617.964H440.493C441.986 617.964 443.445 617.35 444.497 616.281C445.533 615.229 446.089 613.852 446.062 612.405C446.048 611.669 445.885 610.966 445.601 610.327H446.382C449.939 610.327 452.934 607.497 453.058 604.019C453.106 602.676 452.753 601.386 452.048 600.282C454.8 599.543 456.893 597.097 456.996 594.201C457.06 592.407 456.408 590.708 455.16 589.418ZM383.062 636.727C363.884 636.727 348.281 621.165 348.281 602.036V569.855C359.991 569.795 369.5 560.275 369.5 548.582V547.273H396.625V549.091C396.625 559.834 404.651 568.741 415.037 570.164C414.643 570.522 414.217 570.852 413.757 571.144L404.794 576.832C404.003 577.335 403.089 577.6 402.152 577.6H400.134C399.522 575.583 397.642 574.109 395.422 574.109H386.234C384.096 574.109 382.272 575.477 381.594 577.382H373.547C371.194 577.382 369.281 579.291 369.281 581.636V609.782C369.281 612.128 371.194 614.036 373.547 614.036H381.312V630.135C366.573 629.284 354.844 617.056 354.844 602.145V575.032C366.113 574.214 375.093 565.04 375.569 553.709H381.312V568.109C381.312 569.013 382.047 569.745 382.953 569.745C383.859 569.745 384.594 569.013 384.594 568.109V552.073C384.594 551.168 383.859 550.436 382.953 550.436H373.948C373.042 550.436 372.307 551.168 372.307 552.073V552.764C372.307 563.271 363.737 571.818 353.203 571.818C352.297 571.818 351.562 572.55 351.562 573.455V602.145C351.562 619.409 365.645 633.455 382.953 633.455C383.859 633.455 384.594 632.722 384.594 631.818V617.141C384.977 617.248 385.38 617.309 385.797 617.309H395.422C397.03 617.309 398.46 616.536 399.359 615.343L401.109 616.332C402.997 617.399 405.142 617.964 407.311 617.964H413.969C408.026 629.439 396.152 636.727 383.062 636.727ZM381.312 610.764H373.547C373.004 610.764 372.562 610.323 372.562 609.782V581.636C372.562 581.095 373.004 580.655 373.547 580.655H381.312V610.764ZM450.32 597.236H437.531C436.625 597.236 435.891 597.968 435.891 598.873C435.891 599.777 436.625 600.509 437.531 600.509H446.5C447.398 600.509 448.237 600.864 448.862 601.51C449.486 602.154 449.811 603.005 449.779 603.903C449.717 605.641 448.193 607.055 446.382 607.055H440.594C440.557 607.055 440.52 607.058 440.484 607.06C440.448 607.058 440.412 607.055 440.375 607.055H437.531C436.625 607.055 435.891 607.787 435.891 608.691C435.891 609.595 436.625 610.327 437.531 610.327H440.375C440.412 610.327 440.448 610.324 440.484 610.322C440.52 610.324 440.557 610.327 440.594 610.327C441.777 610.327 442.759 611.287 442.781 612.467C442.791 613.028 442.569 613.568 442.156 613.989C441.717 614.435 441.111 614.691 440.494 614.691H407.311C405.707 614.691 404.122 614.274 402.727 613.485L400.344 612.137V608.436C400.344 607.533 399.609 606.8 398.703 606.8C397.797 606.8 397.062 607.533 397.062 608.436V612.4C397.062 613.303 396.327 614.036 395.422 614.036H385.797C385.134 614.036 384.594 613.498 384.594 612.836V579.018C384.594 578.116 385.329 577.382 386.234 577.382H395.422C396.327 577.382 397.062 578.116 397.062 579.018V600.8C397.062 601.704 397.797 602.436 398.703 602.436C399.609 602.436 400.344 601.704 400.344 600.8V580.873H402.152C403.714 580.873 405.237 580.43 406.555 579.593L415.519 573.905C419.166 571.59 421.344 567.633 421.344 563.321V558.182C421.344 555.776 423.306 553.818 425.719 553.818C428.131 553.818 430.094 555.776 430.094 558.183L430.107 578.147C430.107 579.65 431.334 580.873 432.841 580.873H446.382C448.193 580.873 449.717 582.287 449.779 584.024C449.811 584.923 449.485 585.773 448.862 586.418C448.237 587.063 447.398 587.418 446.5 587.418H437.531C436.625 587.418 435.891 588.15 435.891 589.055C435.891 589.959 436.625 590.691 437.531 590.691H450.437C451.336 590.691 452.175 591.046 452.799 591.691C453.423 592.336 453.749 593.186 453.716 594.085C453.655 595.822 452.13 597.236 450.32 597.236Z" fill="#074EE8"/>
<path d="M690.754 1019.03C672.213 1019.03 658.009 1013.72 645.998 1002C633.988 1013.72 619.785 1019.03 601.246 1019.03C601.246 1049.54 594.953 1093.25 645.998 1111C697.047 1093.25 690.754 1049.54 690.754 1019.03Z" fill="#074EE8"/>
<path d="M590.722 1176.62C592.99 1178.88 596.302 1180.43 600.91 1180.43C607.39 1180.43 610.522 1177.12 610.522 1172.73C610.522 1167.4 605.482 1166.21 601.522 1165.31C598.75 1164.66 596.734 1164.16 596.734 1162.54C596.734 1161.1 597.958 1160.09 600.262 1160.09C602.602 1160.09 605.194 1160.92 607.138 1162.72L609.982 1158.98C607.606 1156.78 604.438 1155.63 600.622 1155.63C594.97 1155.63 591.514 1158.87 591.514 1162.86C591.514 1168.23 596.554 1169.31 600.478 1170.21C603.25 1170.86 605.338 1171.47 605.338 1173.27C605.338 1174.64 603.97 1175.97 601.162 1175.97C597.85 1175.97 595.222 1174.49 593.53 1172.73L590.722 1176.62ZM612.74 1171.29C612.74 1176.87 616.736 1180.43 622.028 1180.43C624.728 1180.43 627.428 1179.64 629.192 1178.02L627.176 1175.07C626.06 1176.15 624.152 1176.8 622.532 1176.8C619.58 1176.8 617.816 1174.96 617.528 1172.76H630.452V1171.76C630.452 1166.07 626.924 1162.18 621.74 1162.18C616.448 1162.18 612.74 1166.25 612.74 1171.29ZM621.74 1165.82C624.764 1165.82 625.916 1168.01 626.024 1169.67H617.456C617.672 1167.94 618.896 1165.82 621.74 1165.82ZM632.638 1171.29C632.638 1176.65 636.49 1180.43 641.854 1180.43C645.418 1180.43 647.578 1178.88 648.73 1177.26L645.742 1174.49C644.914 1175.64 643.654 1176.36 642.07 1176.36C639.298 1176.36 637.354 1174.31 637.354 1171.29C637.354 1168.26 639.298 1166.25 642.07 1166.25C643.654 1166.25 644.914 1166.93 645.742 1168.12L648.73 1165.35C647.578 1163.73 645.418 1162.18 641.854 1162.18C636.49 1162.18 632.638 1165.96 632.638 1171.29ZM663.455 1180H668.027V1162.61H663.455V1174.38C662.663 1175.39 661.259 1176.36 659.495 1176.36C657.551 1176.36 656.291 1175.57 656.291 1173.16V1162.61H651.719V1174.96C651.719 1178.34 653.519 1180.43 657.335 1180.43C660.179 1180.43 662.267 1179.14 663.455 1177.8V1180ZM672.567 1180H677.139V1168.52C677.895 1167.4 679.911 1166.57 681.423 1166.57C681.927 1166.57 682.359 1166.61 682.683 1166.68V1162.22C680.523 1162.22 678.363 1163.44 677.139 1164.99V1162.61H672.567V1180ZM687.807 1160.06C689.319 1160.06 690.543 1158.83 690.543 1157.32C690.543 1155.81 689.319 1154.58 687.807 1154.58C686.331 1154.58 685.071 1155.81 685.071 1157.32C685.071 1158.83 686.331 1160.06 687.807 1160.06ZM685.539 1180H690.111V1162.61H685.539V1180ZM700.477 1180.43C702.385 1180.43 703.609 1179.93 704.293 1179.32L703.321 1175.86C703.069 1176.11 702.421 1176.36 701.737 1176.36C700.729 1176.36 700.153 1175.54 700.153 1174.46V1166.61H703.681V1162.61H700.153V1157.86H695.545V1162.61H692.665V1166.61H695.545V1175.68C695.545 1178.78 697.273 1180.43 700.477 1180.43ZM706.881 1182.7L706.197 1186.8C706.773 1186.95 707.925 1187.06 708.465 1187.06C711.453 1186.98 713.757 1186.12 715.053 1182.84L723.225 1162.61H718.293L713.757 1174.71L709.221 1162.61H704.325L711.381 1180.25L710.733 1181.73C710.301 1182.66 709.509 1182.99 708.321 1182.99C707.889 1182.99 707.277 1182.88 706.881 1182.7Z" fill="black"/>
<path d="M333.951 683L328.551 673.856C331.143 673.244 333.807 670.976 333.807 666.728C333.807 662.264 330.747 658.988 325.743 658.988H314.511V683H319.623V674.468H323.367L328.083 683H333.951ZM324.987 669.968H319.623V663.488H324.987C327.039 663.488 328.587 664.712 328.587 666.728C328.587 668.744 327.039 669.968 324.987 669.968ZM344.618 683.432C347.318 683.432 350.054 682.604 351.782 681.02L349.766 678.068C348.65 679.148 346.598 679.796 345.122 679.796C342.17 679.796 340.406 677.96 340.118 675.764H353.042V674.756C353.042 669.068 349.514 665.18 344.33 665.18C339.038 665.18 335.33 669.248 335.33 674.288C335.33 679.868 339.326 683.432 344.618 683.432ZM348.614 672.668H340.046C340.262 670.94 341.486 668.816 344.33 668.816C347.354 668.816 348.506 671.012 348.614 672.668ZM360.916 683V658.988H356.344V683H360.916ZM367.718 663.74C369.23 663.74 370.454 662.516 370.454 661.004C370.454 659.492 369.23 658.304 367.718 658.304C366.242 658.304 364.982 659.492 364.982 661.004C364.982 662.516 366.242 663.74 367.718 663.74ZM370.022 683V665.612H365.45V683H370.022ZM389.567 683V671.768C389.567 666.764 385.931 665.18 381.971 665.18C379.235 665.18 376.499 666.044 374.375 667.916L376.103 670.976C377.579 669.608 379.307 668.924 381.179 668.924C383.483 668.924 384.995 670.076 384.995 671.84V674.18C383.843 672.812 381.791 672.056 379.487 672.056C376.715 672.056 373.439 673.604 373.439 677.672C373.439 681.56 376.715 683.432 379.487 683.432C381.755 683.432 383.807 682.604 384.995 681.2V683H389.567ZM381.323 680.336C379.523 680.336 378.047 679.4 378.047 677.78C378.047 676.088 379.523 675.152 381.323 675.152C382.799 675.152 384.239 675.656 384.995 676.664V678.824C384.239 679.832 382.799 680.336 381.323 680.336ZM398.674 677.42V671.264C399.43 670.112 401.122 669.248 402.598 669.248C405.262 669.248 407.026 671.3 407.026 674.324C407.026 677.348 405.262 679.364 402.598 679.364C401.122 679.364 399.43 678.536 398.674 677.42ZM398.674 683V680.768C400.042 682.496 401.95 683.432 404.038 683.432C408.43 683.432 411.742 680.12 411.742 674.324C411.742 668.636 408.466 665.18 404.038 665.18C401.986 665.18 400.042 666.08 398.674 667.844V658.988H394.102V683H398.674ZM417.464 663.74C418.976 663.74 420.2 662.516 420.2 661.004C420.2 659.492 418.976 658.304 417.464 658.304C415.988 658.304 414.728 659.492 414.728 661.004C414.728 662.516 415.988 663.74 417.464 663.74ZM419.768 683V665.612H415.196V683H419.768ZM428.873 683V658.988H424.301V683H428.873ZM435.675 663.74C437.187 663.74 438.411 662.516 438.411 661.004C438.411 659.492 437.187 658.304 435.675 658.304C434.199 658.304 432.939 659.492 432.939 661.004C432.939 662.516 434.199 663.74 435.675 663.74ZM437.979 683V665.612H433.407V683H437.979ZM448.344 683.432C450.252 683.432 451.476 682.928 452.16 682.316L451.188 678.86C450.936 679.112 450.288 679.364 449.604 679.364C448.596 679.364 448.02 678.536 448.02 677.456V669.608H451.548V665.612H448.02V660.86H443.412V665.612H440.532V669.608H443.412V678.68C443.412 681.776 445.14 683.432 448.344 683.432ZM454.064 689.804C454.64 689.948 455.792 690.056 456.332 690.056C459.32 689.984 461.624 689.12 462.92 685.844L471.092 665.612H466.16L461.624 677.708L457.088 665.612H452.192L459.248 683.252L458.6 684.728C458.168 685.664 457.376 685.988 456.188 685.988C455.756 685.988 455.144 685.88 454.748 685.7L454.064 689.804Z" fill="black"/>
<rect x="90" y="974" width="138" height="158" fill="white"/>
<path d="M147.468 1039.72C157.456 1039.72 165.553 1031.63 165.553 1021.64C165.553 1011.65 157.456 1003.55 147.468 1003.55C137.48 1003.55 129.383 1011.65 129.383 1021.64C129.383 1031.63 137.48 1039.72 147.468 1039.72Z" fill="#074EE8"/>
<path d="M199.131 1063.24L179.412 1043.52C175.799 1039.9 171.059 1037.83 165.985 1037.62C161.494 1042.81 154.859 1046.11 147.468 1046.11C140.077 1046.11 133.441 1042.81 128.951 1037.62C123.877 1037.83 119.137 1039.9 115.524 1043.52L95.804 1063.24C93.9962 1065.04 93 1067.45 93 1070.01C93 1072.56 93.996 1074.97 95.8045 1076.78L115.304 1096.28C116.509 1097.48 118.112 1098.15 119.818 1098.15C120.953 1098.15 122.042 1097.85 123 1097.3V1100.36C123 1102.12 124.429 1103.55 126.191 1103.55H168.744C170.507 1103.55 171.936 1102.12 171.936 1100.36V1097.3C172.894 1097.85 173.983 1098.15 175.118 1098.15C176.823 1098.15 178.426 1097.48 179.632 1096.28L199.131 1076.78C200.94 1074.97 201.936 1072.56 201.936 1070.01C201.936 1067.45 200.94 1065.04 199.131 1063.24ZM123 1085.92L107.088 1070.01L123 1054.09V1085.92ZM171.936 1085.92V1054.09L187.848 1070.01L171.936 1085.92Z" fill="#074EE8"/>
<path d="M181.513 1011.64C182.121 1011.64 182.737 1011.47 183.281 1011.1L189.664 1006.85C191.13 1005.87 191.527 1003.89 190.549 1002.42C189.571 1000.95 187.589 1000.56 186.123 1001.54L179.74 1005.79C178.273 1006.77 177.877 1008.75 178.855 1010.22C179.47 1011.14 180.482 1011.64 181.513 1011.64Z" fill="#074EE8"/>
<path d="M179.74 1034.93L186.123 1039.19C186.667 1039.55 187.282 1039.72 187.89 1039.72C188.922 1039.72 189.934 1039.23 190.549 1038.3C191.527 1036.84 191.13 1034.85 189.664 1033.88L183.281 1029.62C181.814 1028.64 179.833 1029.04 178.855 1030.51C177.877 1031.97 178.273 1033.95 179.74 1034.93Z" fill="#074EE8"/>
<path d="M181.085 1020.36C181.085 1022.12 182.514 1023.55 184.276 1023.55H192.787C194.55 1023.55 195.979 1022.12 195.979 1020.36C195.979 1018.6 194.55 1017.17 192.787 1017.17H184.276C182.514 1017.17 181.085 1018.6 181.085 1020.36Z" fill="#074EE8"/>
<path d="M105.272 1006.85L111.655 1011.1C112.199 1011.47 112.814 1011.64 113.423 1011.64C114.454 1011.64 115.466 1011.14 116.081 1010.22C117.059 1008.75 116.662 1006.77 115.196 1005.79L108.813 1001.54C107.346 1000.56 105.365 1000.96 104.387 1002.42C103.409 1003.89 103.805 1005.87 105.272 1006.85V1006.85Z" fill="#074EE8"/>
<path d="M111.655 1029.62L105.272 1033.88C103.805 1034.85 103.409 1036.84 104.387 1038.3C105.002 1039.23 106.014 1039.72 107.045 1039.72C107.654 1039.72 108.269 1039.55 108.813 1039.19L115.196 1034.93C116.663 1033.95 117.059 1031.97 116.081 1030.51C115.103 1029.04 113.121 1028.64 111.655 1029.62V1029.62Z" fill="#074EE8"/>
<path d="M102.149 1023.55H110.66C112.422 1023.55 113.851 1022.12 113.851 1020.36C113.851 1018.6 112.422 1017.17 110.66 1017.17H102.149C100.386 1017.17 98.9575 1018.6 98.9575 1020.36C98.9575 1022.12 100.386 1023.55 102.149 1023.55Z" fill="#074EE8"/>
</svg>
